# xmcd
#
# Track frame offsets:
# 150
# 13200
# 25500
# 38400
# 55200
# 66450
# 88200
# 110925
# 129375
# 143288
# 159976
# 177526
# 188821
# 211471
# 228571
#
# Disc length: 3193 seconds
#
#
# Revision: 0
# Processed by: cddbd v1.5.1PL2 Copyright (c) Steve Scherf et al.
# Submitted via: FreeRIP 2.944 
#
DISCID=cf0c770f
DTITLE=Little Miss Higgins - Cobbler Shop Sessions
DYEAR=2005
DGENRE=Blues
TTITLE0=Give Your Mama One Smile
TTITLE1=Ferry Boat Blues
TTITLE2=Romance In The Dark
TTITLE3=Jimmy Jube-Jube Strut
TTITLE4=How and Why and When
TTITLE5=Gone For Good
TTITLE6=Rule Breaker
TTITLE7=Radville
TTITLE8=Pete's Back Shack Blues
TTITLE9=She Wouldn't Give Me None
TTITLE10=It Takes A Lot To Laugh,It Takes A Train To Cry
TTITLE11=I'm Gonna Bake My Biscuits
TTITLE12=Slaughterhouse
TTITLE13=You Turn Me On , I'm A Radio
TTITLE14=Numb Foot Strut
EXTD=
EXTT0=
EXTT1=
EXTT2=
EXTT3=
EXTT4=
EXTT5=
EXTT6=
EXTT7=
EXTT8=
EXTT9=
EXTT10=
EXTT11=
EXTT12=
EXTT13=
EXTT14=
PLAYORDER=
